<mxfile modified="2020-09-14T20:40:09.092Z" host="app.diagrams.net" agent="5.0 (Macintosh; Intel Mac OS X 10_14_6) AppleWebKit/605.1.15 (KHTML, like Gecko) Version/13.1.2 Safari/605.1.15" etag="41iq8upZgL9XuhWUWt5g" version="13.7.1" type="github">
  <diagram id="ewtAcaS1UGqNewW32zOQ" name="Page-1">
    <mxGraphModel dx="967" dy="825" grid="1" gridSize="10" guides="1" tooltips="1" connect="1" arrows="1" fold="1" page="1" pageScale="1" pageWidth="1169" pageHeight="827" math="0" shadow="0">
      <root>
        <mxCell id="0" />
        <mxCell id="1" parent="0" />
        <mxCell id="ItIbXl95KCS8FiIQYgaW-3" style="edgeStyle=orthogonalEdgeStyle;rounded=0;orthogonalLoop=1;jettySize=auto;html=1;exitX=1;exitY=0.5;exitDx=0;exitDy=0;entryX=0;entryY=0.5;entryDx=0;entryDy=0;" parent="1" source="ItIbXl95KCS8FiIQYgaW-1" target="ItIbXl95KCS8FiIQYgaW-2" edge="1">
          <mxGeometry relative="1" as="geometry" />
        </mxCell>
        <mxCell id="ItIbXl95KCS8FiIQYgaW-1" value="Create CRAN mirror" style="whiteSpace=wrap;html=1;rounded=1;shadow=1;fontStyle=1" parent="1" vertex="1">
          <mxGeometry x="137.5" y="92" width="105" height="78" as="geometry" />
        </mxCell>
        <mxCell id="ItIbXl95KCS8FiIQYgaW-2" value="Extract package&lt;br&gt;metadata &lt;br&gt;&lt;span style=&quot;font-weight: normal ; font-size: 10px&quot;&gt;- code size&lt;br&gt;- code coverage&lt;br&gt;- reverse dependencies code coverage&lt;/span&gt;" style="whiteSpace=wrap;html=1;rounded=1;shadow=1;fontStyle=1" parent="1" vertex="1">
          <mxGeometry x="287" y="82" width="113" height="98" as="geometry" />
        </mxCell>
        <mxCell id="ItIbXl95KCS8FiIQYgaW-4" value="&lt;div&gt;Extract &lt;br&gt;raw type traces&lt;br&gt;&lt;/div&gt;" style="whiteSpace=wrap;html=1;rounded=1;shadow=1;fontStyle=1;fillColor=#f8cecc;strokeColor=#b85450;" parent="1" vertex="1">
          <mxGeometry x="440" y="92" width="107" height="78" as="geometry" />
        </mxCell>
        <mxCell id="ItIbXl95KCS8FiIQYgaW-5" value="Infer &lt;br&gt;function type signatures" style="whiteSpace=wrap;html=1;rounded=1;shadow=1;fontStyle=1;fillColor=#f8cecc;strokeColor=#b85450;" parent="1" vertex="1">
          <mxGeometry x="581" y="92" width="108" height="78" as="geometry" />
        </mxCell>
        <mxCell id="ItIbXl95KCS8FiIQYgaW-6" value="Validate inferred signatures" style="whiteSpace=wrap;html=1;rounded=1;shadow=1;fontStyle=1;fillColor=#f8cecc;strokeColor=#b85450;" parent="1" vertex="1">
          <mxGeometry x="733" y="92" width="108" height="78" as="geometry" />
        </mxCell>
        <mxCell id="ItIbXl95KCS8FiIQYgaW-9" style="edgeStyle=orthogonalEdgeStyle;rounded=0;orthogonalLoop=1;jettySize=auto;html=1;entryX=0;entryY=0.5;entryDx=0;entryDy=0;exitX=1;exitY=0.5;exitDx=0;exitDy=0;" parent="1" source="ItIbXl95KCS8FiIQYgaW-2" target="ItIbXl95KCS8FiIQYgaW-4" edge="1">
          <mxGeometry relative="1" as="geometry">
            <mxPoint x="367" y="122" as="sourcePoint" />
            <mxPoint x="297" y="132" as="targetPoint" />
          </mxGeometry>
        </mxCell>
        <mxCell id="ItIbXl95KCS8FiIQYgaW-10" style="edgeStyle=orthogonalEdgeStyle;rounded=0;orthogonalLoop=1;jettySize=auto;html=1;exitX=1;exitY=0.5;exitDx=0;exitDy=0;entryX=0;entryY=0.5;entryDx=0;entryDy=0;" parent="1" source="ItIbXl95KCS8FiIQYgaW-4" target="ItIbXl95KCS8FiIQYgaW-5" edge="1">
          <mxGeometry relative="1" as="geometry">
            <mxPoint x="267" y="142" as="sourcePoint" />
            <mxPoint x="307" y="142" as="targetPoint" />
          </mxGeometry>
        </mxCell>
        <mxCell id="ItIbXl95KCS8FiIQYgaW-11" style="edgeStyle=orthogonalEdgeStyle;rounded=0;orthogonalLoop=1;jettySize=auto;html=1;exitX=1;exitY=0.5;exitDx=0;exitDy=0;entryX=0;entryY=0.5;entryDx=0;entryDy=0;" parent="1" source="ItIbXl95KCS8FiIQYgaW-5" target="ItIbXl95KCS8FiIQYgaW-6" edge="1">
          <mxGeometry relative="1" as="geometry">
            <mxPoint x="277" y="152" as="sourcePoint" />
            <mxPoint x="317" y="152" as="targetPoint" />
          </mxGeometry>
        </mxCell>
        <mxCell id="ItIbXl95KCS8FiIQYgaW-15" value="Packages:" style="text;html=1;strokeColor=none;fillColor=none;align=center;verticalAlign=middle;whiteSpace=wrap;rounded=0;fontStyle=1" parent="1" vertex="1">
          <mxGeometry x="61.00000000000006" y="201" width="50" height="20" as="geometry" />
        </mxCell>
        <mxCell id="ItIbXl95KCS8FiIQYgaW-17" value="Code size:" style="text;html=1;strokeColor=none;fillColor=none;align=center;verticalAlign=middle;whiteSpace=wrap;rounded=0;fontStyle=1" parent="1" vertex="1">
          <mxGeometry x="51" y="231" width="70" height="20" as="geometry" />
        </mxCell>
        <mxCell id="ItIbXl95KCS8FiIQYgaW-19" value="" style="endArrow=none;html=1;" parent="1" edge="1">
          <mxGeometry width="50" height="50" relative="1" as="geometry">
            <mxPoint x="45" y="226" as="sourcePoint" />
            <mxPoint x="870" y="226" as="targetPoint" />
          </mxGeometry>
        </mxCell>
        <mxCell id="ItIbXl95KCS8FiIQYgaW-20" value="" style="endArrow=none;html=1;" parent="1" edge="1">
          <mxGeometry width="50" height="50" relative="1" as="geometry">
            <mxPoint x="45" y="256" as="sourcePoint" />
            <mxPoint x="870" y="256" as="targetPoint" />
          </mxGeometry>
        </mxCell>
        <mxCell id="ItIbXl95KCS8FiIQYgaW-22" value="" style="endArrow=none;dashed=1;html=1;fontStyle=1" parent="1" edge="1">
          <mxGeometry width="50" height="50" relative="1" as="geometry">
            <mxPoint x="121" y="290" as="sourcePoint" />
            <mxPoint x="121" y="42" as="targetPoint" />
          </mxGeometry>
        </mxCell>
        <mxCell id="ItIbXl95KCS8FiIQYgaW-23" value="" style="endArrow=none;dashed=1;html=1;" parent="1" edge="1">
          <mxGeometry width="50" height="50" relative="1" as="geometry">
            <mxPoint x="267" y="292" as="sourcePoint" />
            <mxPoint x="267" y="142" as="targetPoint" />
          </mxGeometry>
        </mxCell>
        <mxCell id="ItIbXl95KCS8FiIQYgaW-24" value="" style="endArrow=none;dashed=1;html=1;" parent="1" edge="1">
          <mxGeometry width="50" height="50" relative="1" as="geometry">
            <mxPoint x="419" y="292" as="sourcePoint" />
            <mxPoint x="419.0000000000002" y="142" as="targetPoint" />
          </mxGeometry>
        </mxCell>
        <mxCell id="ItIbXl95KCS8FiIQYgaW-25" value="" style="endArrow=none;dashed=1;html=1;" parent="1" edge="1">
          <mxGeometry width="50" height="50" relative="1" as="geometry">
            <mxPoint x="563" y="292" as="sourcePoint" />
            <mxPoint x="563.0000000000002" y="142" as="targetPoint" />
          </mxGeometry>
        </mxCell>
        <mxCell id="ItIbXl95KCS8FiIQYgaW-26" value="" style="endArrow=none;dashed=1;html=1;" parent="1" edge="1">
          <mxGeometry width="50" height="50" relative="1" as="geometry">
            <mxPoint x="709" y="292" as="sourcePoint" />
            <mxPoint x="709.0000000000002" y="142" as="targetPoint" />
          </mxGeometry>
        </mxCell>
        <mxCell id="ItIbXl95KCS8FiIQYgaW-27" value="" style="endArrow=none;dashed=1;html=1;" parent="1" edge="1">
          <mxGeometry width="50" height="50" relative="1" as="geometry">
            <mxPoint x="857" y="292" as="sourcePoint" />
            <mxPoint x="857.0000000000002" y="142" as="targetPoint" />
          </mxGeometry>
        </mxCell>
        <mxCell id="ItIbXl95KCS8FiIQYgaW-29" value="1h" style="text;html=1;strokeColor=none;fillColor=none;align=center;verticalAlign=middle;whiteSpace=wrap;rounded=0;" parent="1" vertex="1">
          <mxGeometry x="165" y="45" width="40" height="20" as="geometry" />
        </mxCell>
        <mxCell id="ItIbXl95KCS8FiIQYgaW-30" value="Duration:" style="text;html=1;strokeColor=none;fillColor=none;align=center;verticalAlign=middle;whiteSpace=wrap;rounded=0;fontStyle=1" parent="1" vertex="1">
          <mxGeometry x="66.00000000000006" y="45" width="50" height="20" as="geometry" />
        </mxCell>
        <mxCell id="ItIbXl95KCS8FiIQYgaW-32" value="2d&lt;font color=&quot;#FF0000&quot;&gt;&lt;sup&gt;1&lt;/sup&gt;&lt;/font&gt;" style="text;html=1;strokeColor=none;fillColor=none;align=center;verticalAlign=middle;whiteSpace=wrap;rounded=0;" parent="1" vertex="1">
          <mxGeometry x="323.5" y="45" width="40" height="20" as="geometry" />
        </mxCell>
        <mxCell id="ItIbXl95KCS8FiIQYgaW-33" value="10h" style="text;html=1;strokeColor=none;fillColor=none;align=center;verticalAlign=middle;whiteSpace=wrap;rounded=0;" parent="1" vertex="1">
          <mxGeometry x="473.5" y="45" width="40" height="20" as="geometry" />
        </mxCell>
        <mxCell id="ItIbXl95KCS8FiIQYgaW-34" value="5h" style="text;html=1;strokeColor=none;fillColor=none;align=center;verticalAlign=middle;whiteSpace=wrap;rounded=0;" parent="1" vertex="1">
          <mxGeometry x="615" y="45" width="40" height="20" as="geometry" />
        </mxCell>
        <mxCell id="ItIbXl95KCS8FiIQYgaW-35" value="5h" style="text;html=1;strokeColor=none;fillColor=none;align=center;verticalAlign=middle;whiteSpace=wrap;rounded=0;" parent="1" vertex="1">
          <mxGeometry x="762" y="45" width="50" height="20" as="geometry" />
        </mxCell>
        <mxCell id="ItIbXl95KCS8FiIQYgaW-38" value="15K" style="text;html=1;align=right;" parent="1" vertex="1">
          <mxGeometry x="172.5" y="196" width="35" height="30" as="geometry" />
        </mxCell>
        <mxCell id="ItIbXl95KCS8FiIQYgaW-39" value="31.6M" style="text;html=1;align=right;" parent="1" vertex="1">
          <mxGeometry x="165" y="226" width="45" height="30" as="geometry" />
        </mxCell>
        <mxCell id="ItIbXl95KCS8FiIQYgaW-42" value="412" style="text;html=1;align=right;" parent="1" vertex="1">
          <mxGeometry x="330" y="196" width="27" height="30" as="geometry" />
        </mxCell>
        <mxCell id="ItIbXl95KCS8FiIQYgaW-43" value="1.3M" style="text;html=1;align=right;" parent="1" vertex="1">
          <mxGeometry x="327.5" y="225" width="32" height="30" as="geometry" />
        </mxCell>
        <mxCell id="ItIbXl95KCS8FiIQYgaW-45" value="412" style="text;html=1;align=right;" parent="1" vertex="1">
          <mxGeometry x="480" y="196" width="27" height="30" as="geometry" />
        </mxCell>
        <mxCell id="ItIbXl95KCS8FiIQYgaW-46" value="running: 385K" style="text;html=1;align=right;" parent="1" vertex="1">
          <mxGeometry x="461.88" y="226" width="63.25" height="30" as="geometry" />
        </mxCell>
        <mxCell id="ItIbXl95KCS8FiIQYgaW-48" value="412" style="text;html=1;align=right;" parent="1" vertex="1">
          <mxGeometry x="621.5" y="196" width="27" height="30" as="geometry" />
        </mxCell>
        <mxCell id="ItIbXl95KCS8FiIQYgaW-51" value="running: 8,694" style="text;html=1;align=right;" parent="1" vertex="1">
          <mxGeometry x="722" y="196" width="110" height="30" as="geometry" />
        </mxCell>
        <mxCell id="ItIbXl95KCS8FiIQYgaW-52" value="running: 19.6M" style="text;html=1;align=right;" parent="1" vertex="1">
          <mxGeometry x="742" y="226" width="90" height="30" as="geometry" />
        </mxCell>
        <mxCell id="ItIbXl95KCS8FiIQYgaW-64" value="" style="endArrow=none;html=1;" parent="1" edge="1">
          <mxGeometry width="50" height="50" relative="1" as="geometry">
            <mxPoint x="45" y="72" as="sourcePoint" />
            <mxPoint x="870" y="72" as="targetPoint" />
          </mxGeometry>
        </mxCell>
        <mxCell id="ItIbXl95KCS8FiIQYgaW-65" value="" style="endArrow=none;dashed=1;html=1;" parent="1" edge="1">
          <mxGeometry width="50" height="50" relative="1" as="geometry">
            <mxPoint x="267" y="120" as="sourcePoint" />
            <mxPoint x="267" y="41.5" as="targetPoint" />
          </mxGeometry>
        </mxCell>
        <mxCell id="ItIbXl95KCS8FiIQYgaW-66" value="" style="endArrow=none;dashed=1;html=1;" parent="1" edge="1">
          <mxGeometry width="50" height="50" relative="1" as="geometry">
            <mxPoint x="419" y="120" as="sourcePoint" />
            <mxPoint x="419" y="41.5" as="targetPoint" />
          </mxGeometry>
        </mxCell>
        <mxCell id="ItIbXl95KCS8FiIQYgaW-67" value="" style="endArrow=none;dashed=1;html=1;" parent="1" edge="1">
          <mxGeometry width="50" height="50" relative="1" as="geometry">
            <mxPoint x="564" y="120" as="sourcePoint" />
            <mxPoint x="564" y="41.5" as="targetPoint" />
          </mxGeometry>
        </mxCell>
        <mxCell id="ItIbXl95KCS8FiIQYgaW-68" value="" style="endArrow=none;dashed=1;html=1;" parent="1" edge="1">
          <mxGeometry width="50" height="50" relative="1" as="geometry">
            <mxPoint x="709" y="120" as="sourcePoint" />
            <mxPoint x="709" y="41.5" as="targetPoint" />
          </mxGeometry>
        </mxCell>
        <mxCell id="ItIbXl95KCS8FiIQYgaW-69" value="" style="endArrow=none;dashed=1;html=1;" parent="1" edge="1">
          <mxGeometry width="50" height="50" relative="1" as="geometry">
            <mxPoint x="857" y="150" as="sourcePoint" />
            <mxPoint x="857" y="42" as="targetPoint" />
          </mxGeometry>
        </mxCell>
        <mxCell id="ItIbXl95KCS8FiIQYgaW-71" value="Size:" style="text;html=1;strokeColor=none;fillColor=none;align=center;verticalAlign=middle;whiteSpace=wrap;rounded=0;fontStyle=1" parent="1" vertex="1">
          <mxGeometry x="79" y="260" width="44" height="20" as="geometry" />
        </mxCell>
        <mxCell id="ItIbXl95KCS8FiIQYgaW-73" value="package: 8 GB" style="text;html=1;align=right;" parent="1" vertex="1">
          <mxGeometry x="145" y="255" width="90" height="30" as="geometry" />
        </mxCell>
        <mxCell id="ItIbXl95KCS8FiIQYgaW-74" value="packages: 1 GB" style="text;html=1;align=right;" parent="1" vertex="1">
          <mxGeometry x="340" y="255" width="47" height="30" as="geometry" />
        </mxCell>
        <mxCell id="ItIbXl95KCS8FiIQYgaW-75" value="traces: 604 GB" style="text;html=1;align=right;" parent="1" vertex="1">
          <mxGeometry x="448.51" y="256" width="91.49" height="34" as="geometry" />
        </mxCell>
        <mxCell id="ItIbXl95KCS8FiIQYgaW-76" value="types: 5MB" style="text;html=1;align=right;" parent="1" vertex="1">
          <mxGeometry x="602.5" y="255" width="65" height="30" as="geometry" />
        </mxCell>
        <mxCell id="ItIbXl95KCS8FiIQYgaW-77" value="N/A" style="text;html=1;align=right;" parent="1" vertex="1">
          <mxGeometry x="766" y="255" width="42" height="30" as="geometry" />
        </mxCell>
        <mxCell id="ItIbXl95KCS8FiIQYgaW-80" value="" style="endArrow=none;html=1;" parent="1" edge="1">
          <mxGeometry width="50" height="50" relative="1" as="geometry">
            <mxPoint x="45" y="196" as="sourcePoint" />
            <mxPoint x="870" y="196" as="targetPoint" />
          </mxGeometry>
        </mxCell>
        <mxCell id="pbcGCZFKc_p6i6jU_8-z-2" value="N/A" style="text;html=1;align=right;" parent="1" vertex="1">
          <mxGeometry x="606.5" y="230" width="42" height="30" as="geometry" />
        </mxCell>
      </root>
    </mxGraphModel>
  </diagram>
</mxfile>
